<?xml version="1.0" ?><!DOCTYPE svg  PUBLIC '-//W3C//DTD SVG 1.1//EN'  'http://www.w3.org/Graphics/SVG/1.1/DTD/svg11.dtd'><svg enable-background="new 0 0 128 128" id="Layer_1" version="1.1" viewBox="0 0 128 128" xml:space="preserve" xmlns="http://www.w3.org/2000/svg" xmlns:xlink="http://www.w3.org/1999/xlink"><path d="M108,96H14c-1.1,0-2-0.9-2-2V43c0-1.1,0.9-2,2-2h94c1.1,0,2,0.9,2,2v51C110,95.1,109.1,96,108,96z" fill="#C1C1C0"/><path d="M108,96H14c-1.1,0-2-0.9-2-2V43c0-1.1,0.9-2,2-2h94  c1.1,0,2,0.9,2,2v51C110,95.1,109.1,96,108,96z" fill="none" stroke="#3D3D3D" stroke-miterlimit="10" stroke-width="2"/><path d="M115,96H21c-1.1,0-2-0.9-2-2V43c0-1.1,0.9-2,2-2h94c1.1,0,2,0.9,2,2v51C117,95.1,116.1,96,115,96z" fill="#FFFFFF"/><line fill="none" stroke="#3D3D3D" stroke-miterlimit="10" stroke-width="2" x1="12" x2="117" y1="93" y2="93"/><rect fill="#E875AE" height="33" width="105" x="12" y="57"/><rect fill="#DD3B86" height="33" width="7" x="12" y="57"/><path d="M115,96H21c-1.1,0-2-0.9-2-2V43c0-1.1,0.9-2,2-2h94  c1.1,0,2,0.9,2,2v51C117,95.1,116.1,96,115,96z" fill="none" stroke="#3D3D3D" stroke-miterlimit="10" stroke-width="2"/><rect fill="none" height="33" stroke="#3D3D3D" stroke-miterlimit="10" stroke-width="2" width="105" x="12" y="57"/><path d="M65.5,93c-10.6,0-19.2-8.9-19.2-19.5S54.9,54,65.5,54H77v39H65.5z" fill="#FFFFFF"/><path d="M65.5,93c-10.6,0-19.2-8.9-19.2-19.5  S54.9,54,65.5,54H77v39H65.5z" fill="none" stroke="#3D3D3D" stroke-miterlimit="10" stroke-width="2"/><circle cx="74.5" cy="73.5" fill="#C1C1C0" r="19.2"/><ellipse cx="74.5" cy="73.5" fill="none" rx="20" ry="20" stroke="#3D3D3D" stroke-miterlimit="10" stroke-width="2"/><line fill="none" stroke="#3D3D3D" stroke-miterlimit="10" stroke-width="2" x1="46" x2="54" y1="75" y2="75"/><line fill="none" stroke="#3D3D3D" stroke-miterlimit="10" stroke-width="2" x1="47" x2="55" y1="79" y2="79"/><line fill="none" stroke="#3D3D3D" stroke-miterlimit="10" stroke-width="2" x1="49" x2="57" y1="83" y2="83"/><line fill="none" stroke="#3D3D3D" stroke-miterlimit="10" stroke-width="2" x1="51" x2="59" y1="86" y2="86"/><line fill="none" stroke="#3D3D3D" stroke-miterlimit="10" stroke-width="2" x1="54" x2="62" y1="89" y2="89"/><line fill="none" stroke="#3D3D3D" stroke-miterlimit="10" stroke-width="2" x1="59" x2="66" y1="92" y2="92"/><line fill="none" stroke="#3D3D3D" stroke-miterlimit="10" stroke-width="2" x1="47" x2="54" y1="70" y2="70"/><rect fill="#C1C1C0" height="8" width="44" x="68" y="45"/><rect fill="none" height="8" stroke="#3D3D3D" stroke-miterlimit="10" stroke-width="2" width="44" x="68" y="45"/><line fill="none" stroke="#3D3D3D" stroke-miterlimit="10" stroke-width="2" x1="48" x2="56" y1="66" y2="66"/><line fill="none" stroke="#3D3D3D" stroke-miterlimit="10" stroke-width="2" x1="50" x2="58" y1="62" y2="62"/><line fill="none" stroke="#3D3D3D" stroke-miterlimit="10" stroke-width="2" x1="53" x2="61" y1="59" y2="59"/><line fill="none" stroke="#3D3D3D" stroke-miterlimit="10" stroke-width="2" x1="57" x2="65" y1="56" y2="56"/><circle cx="74.5" cy="73.6" fill="#3D3D3D" r="14.4"/><path d="M79,57.4c-1-0.4-2.8-0.7-4.5-0.7S71,57,70,57.4V71h9V57.4z" fill="#3D3D3D"/><circle cx="74.5" cy="73.5" fill="#C1C1C0" r="8.9"/><circle cx="76.2" cy="69" fill="#FFFFFF" r="6.1"/><rect fill="none" height="2" stroke="#3D3D3D" stroke-miterlimit="10" stroke-width="2" width="9" x="76" y="48"/><line fill="none" stroke="#3D3D3D" stroke-miterlimit="10" stroke-width="2" x1="94" x2="94" y1="45" y2="53"/><line fill="none" stroke="#3D3D3D" stroke-miterlimit="10" stroke-width="2" x1="97" x2="97" y1="45" y2="53"/><line fill="none" stroke="#3D3D3D" stroke-miterlimit="10" stroke-width="2" x1="100" x2="100" y1="45" y2="53"/><line fill="none" stroke="#3D3D3D" stroke-miterlimit="10" stroke-width="2" x1="103" x2="103" y1="45" y2="53"/><line fill="none" stroke="#3D3D3D" stroke-miterlimit="10" stroke-width="2" x1="106" x2="106" y1="45" y2="53"/><line fill="none" stroke="#3D3D3D" stroke-miterlimit="10" stroke-width="2" x1="109" x2="109" y1="45" y2="53"/><path d="M107,38H94c-1.7,0-3,1.3-3,3v0h19v0  C110,39.3,108.7,38,107,38z" fill="none" stroke="#3D3D3D" stroke-miterlimit="10" stroke-width="2"/><path d="M64,39L64,39c-1.1,0-2,0.9-2,2v0h4v0  C66,39.9,65.1,39,64,39z" fill="none" stroke="#3D3D3D" stroke-miterlimit="10" stroke-width="2"/><path d="M75,39L75,39c-1.1,0-2,0.9-2,2v0h4v0  C77,39.9,76.1,39,75,39z" fill="none" stroke="#3D3D3D" stroke-miterlimit="10" stroke-width="2"/><rect fill="#C1C1C0" height="7" width="6" x="33" y="34"/><rect fill="none" height="7" stroke="#3D3D3D" stroke-miterlimit="10" stroke-width="2" width="6" x="33" y="34"/><path d="M33,38h-7c-1.7,0-3,1.3-3,3v0h10V38z" fill="#C1C1C0"/><path d="M33,38h-7c-1.7,0-3,1.3-3,3v0h10V38z" fill="none" stroke="#3D3D3D" stroke-miterlimit="10" stroke-width="2"/><path d="M51,40H40v-2h9C50.1,38,51,38.9,51,40L51,40z" fill="none" stroke="#3D3D3D" stroke-miterlimit="10" stroke-width="2"/><path d="M19,50h-2c-1.1,0-2,0.9-2,2s0.9,2,2,2h2" fill="none" stroke="#3D3D3D" stroke-miterlimit="10" stroke-width="2"/><path d="M117,53.9c1.1,0,2-0.9,2-1.9s-0.9-1.9-2-1.9" fill="none" stroke="#3D3D3D" stroke-miterlimit="10" stroke-width="2"/><polyline fill="none" points="51,47 55.2,47 52,52.9 " stroke="#3D3D3D" stroke-miterlimit="10" stroke-width="2"/><line fill="none" stroke="#3D3D3D" stroke-miterlimit="10" stroke-width="2" x1="24" x2="47" y1="47" y2="47"/><line fill="none" stroke="#3D3D3D" stroke-miterlimit="10" stroke-width="2" x1="24" x2="33" y1="51" y2="51"/></svg>